<svg width="70" height="70" viewBox="0 0 70 70" fill="none" xmlns="http://www.w3.org/2000/svg">
<path d="M16.0417 26.25H53.9584V49.5833C53.9584 50.3886 53.3054 51.0417 52.5001 51.0417H17.5001C16.6947 51.0417 16.0417 50.3886 16.0417 49.5833V26.25Z" stroke="black" stroke-width="2"/>
<path d="M15.3125 21.875C15.3125 20.6669 16.2919 19.6875 17.5 19.6875H52.5C53.7081 19.6875 54.6875 20.6669 54.6875 21.875V22.6042H15.3125V21.875Z" fill="black" stroke="black" stroke-width="0.5"/>
<path d="M26 15C24.8954 15 24 15.9286 24 17.0741V20.9259C24 22.0714 24.8954 23 26 23C27.1046 23 28 22.0714 28 20.9259V17.0741C28 15.9286 27.1046 15 26 15Z" fill="black"/>
<path d="M44 15C42.8954 15 42 15.9286 42 17.0741V20.9259C42 22.0714 42.8954 23 44 23C45.1046 23 46 22.0714 46 20.9259V17.0741C46 15.9286 45.1046 15 44 15Z" fill="black"/>
<path d="M45.2083 31.0833H42.2915C41.4861 31.0833 40.8333 31.7362 40.8333 32.5416V34.486C40.8333 35.2915 41.4861 35.9444 42.2915 35.9444H45.2083C46.0137 35.9444 46.6665 35.2915 46.6665 34.486V32.5416C46.6665 31.7362 46.0137 31.0833 45.2083 31.0833Z" fill="black"/>
<path d="M45.2083 41.8054H42.2915C41.4861 41.8054 40.8333 42.4583 40.8333 43.2638V45.2082C40.8333 46.0136 41.4861 46.6665 42.2915 46.6665H45.2083C46.0137 46.6665 46.6665 46.0136 46.6665 45.2082V43.2638C46.6665 42.4583 46.0137 41.8054 45.2083 41.8054Z" fill="black"/>
<path d="M36.4583 31.0833H33.5415C32.7361 31.0833 32.0833 31.7362 32.0833 32.5416V34.486C32.0833 35.2915 32.7361 35.9444 33.5415 35.9444H36.4583C37.2637 35.9444 37.9165 35.2915 37.9165 34.486V32.5416C37.9165 31.7362 37.2637 31.0833 36.4583 31.0833Z" fill="black"/>
<path d="M36.4583 41.8054H33.5415C32.7361 41.8054 32.0833 42.4583 32.0833 43.2638V45.2082C32.0833 46.0136 32.7361 46.6665 33.5415 46.6665H36.4583C37.2637 46.6665 37.9165 46.0136 37.9165 45.2082V43.2638C37.9165 42.4583 37.2637 41.8054 36.4583 41.8054Z" fill="black"/>
<path d="M27.7083 31.0833H24.7916C23.9862 31.0833 23.3333 31.7362 23.3333 32.5416V34.486C23.3333 35.2915 23.9862 35.9444 24.7916 35.9444H27.7083C28.5137 35.9444 29.1666 35.2915 29.1666 34.486V32.5416C29.1666 31.7362 28.5137 31.0833 27.7083 31.0833Z" fill="black"/>
<path d="M27.7083 41.8054H24.7916C23.9862 41.8054 23.3333 42.4583 23.3333 43.2638V45.2082C23.3333 46.0136 23.9862 46.6665 24.7916 46.6665H27.7083C28.5137 46.6665 29.1666 46.0136 29.1666 45.2082V43.2638C29.1666 42.4583 28.5137 41.8054 27.7083 41.8054Z" fill="black"/>
</svg>
