<svg width="226" height="120" viewBox="0 0 226 120" fill="none" xmlns="http://www.w3.org/2000/svg">
<g clip-path="url(#clip0_103_1267)">
<path d="M22.1578 69.0191H79.7229V78.5584H22.1578V69.0191ZM20.3774 86.1898H81.6219V96.0304H20.3774V86.1898ZM55.9847 72.0315H68.4472V116.816C68.4472 116.816 54.6791 118.623 50.5357 116.816C46.3923 115.009 55.9847 72.0315 55.9847 72.0315ZM32.84 72.4331H44.9464V91.7126C44.9464 98.1391 51.871 111.092 39.4084 118.322C37.5094 116.214 23.1073 113.302 20.14 111.695C30.2288 106.473 32.84 96.7333 32.84 91.6122V72.4331ZM8.03356 41.9073H37.9437V49.7396H8.03356V41.9073ZM63.1061 41.9073H93.1349V49.7396H63.1061V41.9073ZM87.5565 28.1506H101.562V104.666C101.562 110.691 103.49 114.808 99.2175 116.816C94.8259 118.824 85.42 118.423 76.2808 118.322C75.9248 115.109 68.4472 104.465 70.9357 100.565C76.2808 97.4268 83.2836 106.574 85.064 106.574C86.963 106.574 87.5565 105.971 87.5565 104.465V28.1506ZM9.33916 28.1506H46.9642V63.8979H9.33916V55.2624H33.5521V36.7862H9.33916V28.1506ZM94.7966 28.1506V36.7862H68.2099V55.4632H94.7966V64.0988H54.6791V28.1506H94.7966ZM0.912109 28.1506H14.9176C14.9176 28.1506 13.6087 90.3193 14.9176 96.0304C16.2266 101.741 22.1578 113.901 20.3774 118.322C18.5971 122.743 0.912109 118.623 0.912109 118.623V28.1506Z" fill="#04B600"/>
</g>
<g clip-path="url(#clip1_103_1267)">
<path d="M129.312 30.4606H198.944V40.538H129.312V30.4606ZM115.488 3.6173H151.712V12.8921H115.488V3.6173ZM112.672 50.7045H214.688V60.5144H112.672V50.7045ZM146.336 3.6173H149.024L151.712 3.26057L161.952 6.56025C153.248 24.753 134.048 37.5058 112.16 44.7294C110.112 42.3216 105.888 38.6652 102.816 36.7032C121.888 31.174 139.68 19.0455 146.336 5.49009V3.6173ZM140.192 35.5439H155.424V50.9721C155.424 63.6357 167.712 76.0317 136.096 83.4337C129.312 85.022 112.544 77.7262 109.344 75.8534C136.608 69.8783 140.192 59.9793 140.192 50.7937V35.5439ZM177.952 0.317627C186.144 15.6566 202.912 28.9445 225.44 35.1871C221.856 37.3275 217.12 41.6081 214.688 44.4619C190.88 36.614 174.24 21.6317 164.256 3.08222L177.952 0.317627ZM111.52 19.8481L121.248 14.2298C126.112 16.6376 132.768 20.1157 136.096 22.5235L125.984 28.677C122.912 26.3583 116.512 22.5235 111.52 19.8481ZM195.872 1.65533L207.392 7.2737C200.736 11.5544 192.928 16.0134 186.912 18.778L177.696 13.873C183.456 10.7517 191.392 5.49009 195.872 1.65533ZM211.104 11.8219L222.368 17.3511C215.456 21.7209 207.008 26.3583 200.48 29.3904L191.264 24.4855C197.536 21.275 206.112 15.835 211.104 11.8219ZM171.296 35.9898H187.296V70.1458C187.296 73.4455 187.808 73.8914 191.392 73.8914C192.928 73.8914 199.328 73.8914 201.12 73.8914C204.576 73.8914 198.432 68.8973 198.944 60.5144C202.144 62.2088 227.776 65.3757 232 66C230.592 77.861 213.92 83.4337 202.656 83.4337C199.84 83.4337 191.392 83.4337 188.576 83.4337C174.624 83.4337 171.296 80.2232 171.296 70.1458V35.9898Z" fill="#FF5555"/>
</g>
<path fill-rule="evenodd" clip-rule="evenodd" d="M114.398 115.3C115.223 115.081 115.635 114.793 115.635 114.436V108.181L116.121 108.222C117.148 108.222 117.959 108.167 118.553 108.058C118.986 107.975 119.344 107.866 119.628 107.728C119.925 107.564 120.296 107.303 120.742 106.947C121.188 106.59 121.634 105.808 122.08 104.601C122.702 102.955 123.012 100.307 123.012 96.6584C123.012 93.9972 122.796 91.8162 122.364 90.1152C122.039 88.7984 121.418 87.7558 120.499 86.9877C119.742 86.3292 118.188 86 115.837 86C111.946 86 110 86.6584 110 87.9753V114.436C110 114.848 110.115 115.149 110.345 115.342C110.574 115.534 111.101 115.63 111.926 115.63C112.75 115.63 113.574 115.52 114.398 115.3ZM116.141 101.35H115.655V92.9136H116.283C116.459 92.9136 116.608 92.9822 116.729 93.1193C116.864 93.2291 116.993 93.6132 117.114 94.2716C117.249 94.9026 117.317 95.8354 117.317 97.07C117.317 98.2771 117.256 99.2236 117.134 99.9095C117.026 100.568 116.898 100.979 116.749 101.144C116.601 101.281 116.398 101.35 116.141 101.35ZM124.675 115.424C124.905 115.561 125.357 115.63 126.033 115.63H133.472C133.674 115.63 133.836 114.971 133.958 113.654C134.08 112.337 134.14 110.774 134.14 108.963C134.14 107.125 133.998 106.206 133.715 106.206C132.877 106.206 131.634 106.316 129.985 106.535V88.3045C129.985 88.0302 129.938 87.7558 129.843 87.4815C129.573 86.7407 129.006 86.3704 128.141 86.3704C127.168 86.3704 126.29 86.6722 125.506 87.2757C124.722 87.8519 124.33 88.4417 124.33 89.0453V114.642C124.33 114.999 124.445 115.259 124.675 115.424ZM146.766 113.037C147.888 111.062 148.449 108.099 148.449 104.148V88.5926C148.449 88.2359 148.368 87.8107 148.206 87.3169C147.976 86.6859 147.435 86.3704 146.584 86.3704C145.584 86.3704 144.699 86.6447 143.929 87.1934C143.172 87.7421 142.794 88.3594 142.794 89.0453V100.815C142.794 103.997 142.74 106.082 142.632 107.07C142.537 108.03 142.301 108.51 141.922 108.51C141.544 108.51 141.294 108.016 141.172 107.029C141.064 106.014 141.01 103.956 141.01 100.856V88.5926C141.01 88.2359 140.922 87.8107 140.747 87.3169C140.504 86.6859 139.977 86.3704 139.166 86.3704C138.152 86.3704 137.261 86.6447 136.49 87.1934C135.734 87.7421 135.355 88.3594 135.355 89.0453V104.148C135.355 108.099 135.923 111.062 137.058 113.037C138.193 114.985 139.814 115.959 141.922 115.959C144.044 115.959 145.659 114.985 146.766 113.037ZM158.676 115.424C159.406 115.012 159.973 114.505 160.379 113.901C160.784 113.298 161.115 112.584 161.372 111.761C161.791 110.417 162 108.922 162 107.276C162 105.712 161.851 104.34 161.554 103.16C161.257 101.981 160.885 101.075 160.439 100.444C159.993 99.786 159.507 99.2236 158.98 98.7572C158.467 98.2634 157.987 97.9067 157.541 97.6872C157.109 97.4403 156.744 97.1797 156.446 96.9053C156.149 96.6036 156.001 96.2332 156.001 95.7942C156.001 95.3279 156.102 94.9849 156.305 94.7654C156.521 94.546 156.919 94.4362 157.5 94.4362C158.095 94.4362 158.838 94.834 159.73 95.6296C160.027 95.8765 160.203 96 160.257 96C160.568 96 160.885 95.177 161.21 93.5309C161.547 91.8848 161.716 90.3484 161.716 88.9218C161.716 88.5103 161.514 88.0988 161.108 87.6872C160.716 87.2483 160.034 86.8642 159.061 86.535C158.088 86.1783 156.933 86 155.595 86C152.014 86 150.224 89.0453 150.224 95.1358C150.224 96.5624 150.373 97.8381 150.67 98.963C150.967 100.06 151.339 100.911 151.785 101.514C152.231 102.118 152.71 102.667 153.224 103.16C153.751 103.654 154.237 104.038 154.683 104.313C155.129 104.56 155.501 104.861 155.798 105.218C156.095 105.547 156.244 105.931 156.244 106.37C156.244 106.809 156.163 107.152 156.001 107.399C155.838 107.619 155.487 107.728 154.947 107.728C154.406 107.728 153.602 107.358 152.535 106.617C151.467 105.877 150.906 105.506 150.852 105.506C150.555 105.506 150.298 106.343 150.082 108.016C149.866 109.663 149.758 111.254 149.758 112.79C149.758 113.229 149.981 113.682 150.427 114.148C150.873 114.614 151.609 115.04 152.636 115.424C153.663 115.808 154.744 116 155.879 116C157.028 116 157.96 115.808 158.676 115.424ZM170.314 115.3C171.122 115.081 171.526 114.793 171.526 114.436V108.181L172.003 108.222C173.011 108.222 173.806 108.167 174.389 108.058C174.813 107.975 175.164 107.866 175.442 107.728C175.734 107.564 176.098 107.303 176.536 106.947C176.973 106.59 177.41 105.808 177.848 104.601C178.457 102.955 178.762 100.307 178.762 96.6584C178.762 93.9972 178.55 91.8162 178.126 90.1152C177.808 88.7984 177.198 87.7558 176.297 86.9877C175.555 86.3292 174.031 86 171.725 86C167.908 86 166 86.6584 166 87.9753V114.436C166 114.848 166.113 115.149 166.338 115.342C166.563 115.534 167.08 115.63 167.888 115.63C168.697 115.63 169.505 115.52 170.314 115.3ZM172.023 101.35H171.546V92.9136H172.162C172.335 92.9136 172.48 92.9822 172.6 93.1193C172.732 93.2291 172.858 93.6132 172.977 94.2716C173.11 94.9026 173.176 95.8354 173.176 97.07C173.176 98.2771 173.117 99.2236 172.997 99.9095C172.891 100.568 172.765 100.979 172.62 101.144C172.474 101.281 172.275 101.35 172.023 101.35ZM180.393 115.424C180.618 115.561 181.062 115.63 181.725 115.63H189.02C189.219 115.63 189.378 114.971 189.497 113.654C189.616 112.337 189.676 110.774 189.676 108.963C189.676 107.125 189.537 106.206 189.259 106.206C188.437 106.206 187.218 106.316 185.601 106.535V88.3045C185.601 88.0302 185.555 87.7558 185.462 87.4815C185.197 86.7407 184.64 86.3704 183.792 86.3704C182.838 86.3704 181.976 86.6722 181.208 87.2757C180.439 87.8519 180.055 88.4417 180.055 89.0453V114.642C180.055 114.999 180.168 115.259 180.393 115.424ZM202.059 113.037C203.159 111.062 203.709 108.099 203.709 104.148V88.5926C203.709 88.2359 203.63 87.8107 203.471 87.3169C203.246 86.6859 202.715 86.3704 201.881 86.3704C200.9 86.3704 200.032 86.6447 199.276 87.1934C198.534 87.7421 198.163 88.3594 198.163 89.0453V100.815C198.163 103.997 198.11 106.082 198.004 107.07C197.911 108.03 197.68 108.51 197.308 108.51C196.937 108.51 196.692 108.016 196.573 107.029C196.467 106.014 196.414 103.956 196.414 100.856V88.5926C196.414 88.2359 196.328 87.8107 196.155 87.3169C195.917 86.6859 195.4 86.3704 194.605 86.3704C193.611 86.3704 192.736 86.6447 191.981 87.1934C191.239 87.7421 190.868 88.3594 190.868 89.0453V104.148C190.868 108.099 191.424 111.062 192.538 113.037C193.651 114.985 195.241 115.959 197.308 115.959C199.389 115.959 200.973 114.985 202.059 113.037ZM213.74 115.424C214.456 115.012 215.012 114.505 215.41 113.901C215.807 113.298 216.132 112.584 216.384 111.761C216.795 110.417 217 108.922 217 107.276C217 105.712 216.854 104.34 216.563 103.16C216.271 101.981 215.907 101.075 215.469 100.444C215.032 99.786 214.555 99.2236 214.038 98.7572C213.535 98.2634 213.064 97.9067 212.627 97.6872C212.203 97.4403 211.845 97.1797 211.553 96.9053C211.262 96.6036 211.116 96.2332 211.116 95.7942C211.116 95.3279 211.215 94.9849 211.414 94.7654C211.626 94.546 212.017 94.4362 212.587 94.4362C213.17 94.4362 213.899 94.834 214.774 95.6296C215.065 95.8765 215.237 96 215.29 96C215.595 96 215.907 95.177 216.225 93.5309C216.556 91.8848 216.722 90.3484 216.722 88.9218C216.722 88.5103 216.523 88.0988 216.125 87.6872C215.741 87.2483 215.072 86.8642 214.118 86.535C213.163 86.1783 212.03 86 210.718 86C207.206 86 205.45 89.0453 205.45 95.1358C205.45 96.5624 205.596 97.8381 205.888 98.963C206.179 100.06 206.544 100.911 206.981 101.514C207.418 102.118 207.889 102.667 208.393 103.16C208.909 103.654 209.386 104.038 209.824 104.313C210.261 104.56 210.626 104.861 210.917 105.218C211.209 105.547 211.354 105.931 211.354 106.37C211.354 106.809 211.275 107.152 211.116 107.399C210.957 107.619 210.612 107.728 210.082 107.728C209.552 107.728 208.764 107.358 207.717 106.617C206.67 105.877 206.12 105.506 206.067 105.506C205.775 105.506 205.523 106.343 205.311 108.016C205.099 109.663 204.993 111.254 204.993 112.79C204.993 113.229 205.212 113.682 205.649 114.148C206.087 114.614 206.809 115.04 207.816 115.424C208.823 115.808 209.883 116 210.997 116C212.123 116 213.038 115.808 213.74 115.424Z" fill="#FF5555"/>
<path d="M25.2152 22.895C24.333 23.3308 23.098 23.6972 21.5101 23.9944C19.9516 24.2717 17.9227 24.4104 15.4232 24.4104C12.9531 24.4104 10.6007 24.2717 8.36589 23.9944C6.13107 23.7171 4.52849 23.4099 3.55811 23.0732C2.58773 22.7365 2.10254 22.4097 2.10254 22.0927C2.10254 20.9834 2.33778 19.8344 2.80827 18.6458C3.27876 17.4374 3.83745 16.8333 4.48438 16.8333C4.60201 16.8333 5.82231 17.1007 8.14535 17.6355C10.4684 18.1704 12.218 18.4378 13.3942 18.4378C14.5704 18.4378 15.335 18.3586 15.6878 18.2001C16.0407 18.0218 16.2171 17.7742 16.2171 17.4572C16.2171 17.1403 15.8937 16.863 15.2468 16.6252C14.5998 16.3677 13.7912 16.1498 12.8208 15.9715C11.8504 15.7734 10.7918 15.4961 9.64503 15.1395C8.52763 14.783 7.48373 14.3868 6.51335 13.951C5.54297 13.5151 4.73433 12.9011 4.0874 12.1087C3.44048 11.2965 3.11703 10.3753 3.11703 9.34525C3.11703 4.94753 7.01323 2.74868 14.8057 2.74868C17.7168 2.74868 20.231 2.87743 22.3482 3.13496C24.4653 3.37268 25.9503 3.65 26.8031 3.96696C27.6852 4.26411 28.1263 4.56125 28.1263 4.85839C28.1263 5.88849 27.7588 6.99782 27.0236 8.18639C26.3179 9.37496 25.6269 9.96925 24.9505 9.96925C24.8329 9.96925 24.4507 9.88011 23.8037 9.70182C21.863 9.12735 20.2457 8.84011 18.9518 8.84011C17.6874 8.84011 16.82 8.91935 16.3495 9.07782C15.9084 9.23629 15.6878 9.48392 15.6878 9.82068C15.6878 10.1376 16.0113 10.4051 16.6582 10.623C17.3051 10.8211 18.0991 11.0092 19.0401 11.1875C20.0104 11.346 21.0543 11.6035 22.1717 11.9601C23.3185 12.2969 24.3771 12.703 25.3475 13.1784C26.3179 13.634 27.1265 14.2877 27.7735 15.1395C28.4204 15.9914 28.7438 16.9818 28.7438 18.111C28.7438 19.2995 28.2881 20.3791 27.3765 21.3498C26.8178 21.9441 26.0974 22.4591 25.2152 22.895ZM43.3127 23.4298C43.3127 23.6477 42.4893 23.826 40.8427 23.9647C39.1958 24.0835 37.4756 24.143 35.6818 24.143C33.8882 24.143 32.7268 24.0934 32.1975 23.9944C31.6682 23.8755 31.4036 23.6874 31.4036 23.4298V2.86753C31.4036 2.43172 32.2267 2.00582 33.8736 1.58982C35.5497 1.17382 37.3433 0.96582 39.2548 0.96582C41.96 0.96582 43.3127 1.42144 43.3127 2.33268V13.4458H43.8862C45.2976 8.90943 46.3413 6.64125 47.0178 6.64125C48.7232 6.64125 50.7816 6.90868 53.193 7.44353C55.604 7.97839 56.8098 8.57268 56.8098 9.22639C56.8098 9.70182 56.2215 10.6131 55.0455 11.9601C53.8692 13.3071 52.6488 14.4066 51.3845 15.2584C55.5894 18.6458 57.692 20.6565 57.692 21.2904C57.692 21.8847 56.3539 22.6077 53.6782 23.4595C51.0022 24.3114 49.1201 24.7372 48.0323 24.7372C47.503 24.7372 46.9442 24.3114 46.3562 23.4595C45.7679 22.588 45.1358 21.2904 44.4596 19.567L43.3127 20.4881V23.4298ZM71.5745 8.78068V23.4298C71.5745 23.6477 70.7218 23.826 69.0162 23.9647C67.3401 24.0835 65.6053 24.143 63.8114 24.143C62.0471 24.143 60.9003 24.0934 60.371 23.9944C59.8712 23.8755 59.6212 23.6874 59.6212 23.4298V9.31553C59.6212 8.87972 60.4446 8.45382 62.0912 8.03782C63.7673 7.602 65.5906 7.38411 67.5606 7.38411C70.2366 7.38411 71.5745 7.84964 71.5745 8.78068ZM65.5758 0.96582C67.5165 0.96582 69.0311 1.16391 70.1189 1.5601C71.2365 1.93649 71.795 2.62982 71.795 3.64011C71.795 5.42296 69.7368 6.31439 65.6199 6.31439C61.5032 6.31439 59.4447 5.42296 59.4447 3.64011C59.4447 1.85725 61.4886 0.96582 65.5758 0.96582ZM86.7747 2.33268V23.4298C86.7747 23.6477 85.9366 23.826 84.2605 23.9647C82.5844 24.0835 80.8493 24.143 79.0557 24.143C77.2914 24.143 76.1446 24.0934 75.6153 23.9944C75.1152 23.8755 74.8655 23.6874 74.8655 23.4298V2.86753C74.8655 2.43172 75.6886 2.00582 77.3355 1.58982C79.0116 1.17382 80.8052 0.96582 82.7167 0.96582C85.4219 0.96582 86.7747 1.42144 86.7747 2.33268ZM101.765 2.33268V23.4298C101.765 23.6477 100.926 23.826 99.2504 23.9647C97.5743 24.0835 95.8392 24.143 94.0456 24.143C92.2813 24.143 91.1345 24.0934 90.6052 23.9944C90.1051 23.8755 89.8553 23.6874 89.8553 23.4298V2.86753C89.8553 2.43172 90.6785 2.00582 92.3254 1.58982C94.0015 1.17382 95.795 0.96582 97.7066 0.96582C100.412 0.96582 101.765 1.42144 101.765 2.33268Z" fill="#04B600"/>
<defs>
<clipPath id="clip0_103_1267">
<rect width="102" height="91" fill="white" transform="translate(0 28)"/>
</clipPath>
<clipPath id="clip1_103_1267">
<rect width="124" height="85" fill="white" transform="translate(102)"/>
</clipPath>
</defs>
</svg>
